<svg xmlns="http://www.w3.org/2000/svg">
<symbol id="header-logo" xmlns="http://www.w3.org/2000/svg" xmlns:xlink="http://www.w3.org/1999/xlink" viewBox="0 0 1790.28 422.73">
  <defs>
    <clipPath id="clippath">
      <rect class="cls-5" width="1535.16" height="390.47"/>
    </clipPath>
  </defs>
  <path d="m1661.26,104.92c-24.91,0-49.25,7.38-69.96,21.22-20.71,13.83-36.84,33.5-46.36,56.5-9.54,23.01-12.02,48.32-7.17,72.74,4.86,24.42,16.85,46.86,34.46,64.46,17.6,17.61,40.03,29.6,64.46,34.46,24.42,4.86,49.74,2.36,72.75-7.17,23-9.53,42.66-25.67,56.49-46.37,13.84-20.7,21.22-45.05,21.22-69.95,0-33.39-13.27-65.42-36.87-89.03-23.61-23.61-55.64-36.88-89.03-36.88Zm0,187.25c-12.14,0-23.99-3.6-34.07-10.34-10.09-6.74-17.95-16.32-22.6-27.53-4.64-11.21-5.86-23.54-3.48-35.44,2.36-11.9,8.2-22.83,16.78-31.4,8.58-8.58,19.5-14.42,31.4-16.79,11.9-2.37,24.23-1.15,35.44,3.49,11.2,4.64,20.79,12.5,27.53,22.59,6.73,10.09,10.33,21.94,10.33,34.08.02,8.06-1.56,16.04-4.63,23.49-3.08,7.45-7.59,14.21-13.3,19.91-5.69,5.7-12.46,10.22-19.91,13.29-7.44,3.08-15.42,4.65-23.48,4.64Z"/>
  <rect x="1729.65" y="105.33" width="60.63" height="251.75"/>
  <g class="cls-4">
    <g>
      <path d="m586.81,9.18l-132.44,346.04h71.18l27.49-72.27h140.62l27.36,72.27h70.64L659.69,9.18h-72.88Zm-9.66,210.26l46.34-121.77,46.08,121.77h-92.42Z"/>
      <path d="m876.46,265.97l-57.49-153.86h-67.89l92.53,243.11h67.35l90.88-243.11h-67.89l-57.49,153.86Z"/>
      <path d="m1215.37,47.51h-64.6v64.6h-37.77v58.05h37.77v103.49c0,58.59,32.31,83.77,77.74,83.77,15.41.22,30.7-2.76,44.9-8.76v-60.22c-7.73,2.85-15.88,4.36-24.11,4.46-19.62,0-33.94-7.67-33.94-33.95v-88.79h58.05v-58.05h-58.05V47.51Z"/>
      <path d="m1054.94,94.6c26.01,0,47.09-21.08,47.09-47.09S1080.95.42,1054.94.42s-47.09,21.08-47.09,47.09,21.09,47.09,47.09,47.09Z"/>
      <path d="m1087.25,112.11h-64.6v243.11h64.6V112.11Z"/>
      <path class="cls-3" d="m294.98.42c-69.55,0-125.94,56.38-125.94,125.94s56.38,125.94,125.94,125.94,125.94-56.38,125.94-125.94S364.53.42,294.98.42Z" stroke="transparent" fill="#0af"/>
      <path class="cls-1" d="m76.51,16.31C34.49,16.31.42,50.38.42,92.41s34.07,76.1,76.1,76.1,76.1-34.07,76.1-76.1S118.54,16.31,76.51,16.31Z" stroke="transparent" fill="#965eeb"/>
      <path class="cls-6" d="m270.9,268.71c-26.01,0-47.09,21.08-47.09,47.09s21.08,47.09,47.09,47.09,47.09-21.08,47.09-47.09-21.08-47.09-47.09-47.09Z" stroke="transparent" fill="#ff4053"/>
      <path class="cls-2" d="m106.08,184.94c-56.55,0-102.39,45.84-102.39,102.39s45.84,102.39,102.39,102.39,102.39-45.84,102.39-102.39-45.84-102.39-102.39-102.39Z" stroke="transparent" fill="#04e061"/>
    </g>
  </g>
  <path d="m1409.8,259.19l-57.49-153.86h-67.89c30.93,81.11,61.86,162.22,92.78,243.32-4.22,6.3-10.56,16.17-17.47,28.77-12.63,23.05-21.32,38.91-16.44,44.18,2.93,3.17,8.02-.41,45.21-10.28,10.09-2.68,27.74-7.19,27.74-7.19h0s8.22-14.08,9.6-16.47c4.4-7.62,10.69-19.78,18.45-39.24,30.29-81.04,60.59-162.07,90.88-243.11h-67.89l-57.49,153.86Z"/>
</symbol>

<symbol id="category-icon" viewBox="0 0 20 20" fill="none" xmlns="http://www.w3.org/2000/svg">
    <path fill-rule="evenodd" clip-rule="evenodd" d="M12.5 16c1.16 0 2.23-.36 3.11-.97l3 3 .99-1-2.94-2.93A5.5 5.5 0 1 0 12.5 16m0-1.4a4.1 4.1 0 1 0 0-8.2 4.1 4.1 0 0 0 0 8.2" fill="currentColor"/>
    <path d="M7 6H1v1.4h6z" fill="currentColor"/>
    <path d="M1 10.3h4v1.4H1z" fill="currentColor"/>
    <path d="M7 14.6H1V16h6z" fill="currentColor"/>
</symbol>

<symbol id="category-icon-open" viewBox="0 0 14 20" fill="none" xmlns="http://www.w3.org/2000/svg">
  <path d="m7 11.99 5 5 1-.98L7.99 11l5-5-.98-1L7 10.02l-5-5-1 .98L6.02 11l-5 5L2 17z" fill="currentColor"/>
</symbol>

<symbol id="icon-pin" xmlns="http://www.w3.org/2000/svg" xmlns:xlink="http://www.w3.org/1999/xlink" 
	 viewBox="0 0 10 10">
  <circle cx="4.59927" cy="4.6" r="1.25455" fill="currentColor"></circle>
  <path d="M0.5 4.44318C0.5 2.27871 2.31612 0.5 4.6 0.5C6.88388 0.5 8.7 2.27871 8.7 4.44318C8.7 5.36368 8.36741 6.19394 7.84004 6.84334L5.44405 9.71032C5.22744 9.96951 5.08532 10.1389 4.96726 10.2575C4.8524 10.373 4.7979 10.4006 4.77138 10.4103C4.6607 10.4507 4.5393 10.4507 4.42862 10.4103C4.4021 10.4006 4.3476 10.373 4.23274 10.2575C4.11468 10.1389 3.97256 9.96951 3.75595 9.71032L1.35996 6.84335C0.832595 6.19395 0.5 5.36369 0.5 4.44318Z" stroke="currentColor" stroke-linejoin="round"></path>
</symbol>

<symbol id="icon-like" class="icon-like" viewBox="0 0 20 20" fill="none" xmlns="http://www.w3.org/2000/svg">
<path class="icon-like-path" d="M9.81068 3.51219L9.99 3.69156L10.1693 3.51218C12.1849 1.49598 15.453 1.49596 17.4687 3.51216C19.4841 5.52821 19.4842 8.7968 17.4688 10.8128L10.7679 17.5156C10.5616 17.722 10.2818 17.8379 9.99 17.8379C9.6982 17.8379 9.41836 17.722 9.21206 17.5156L2.51138 10.8129C0.49582 8.79676 0.495981 5.52817 2.51136 3.51218C4.52694 1.496 7.79507 1.49594 9.81068 3.51219Z" fill="currentColor"></path>
</symbol>

<symbol id="icon-burger-arrow" viewBox="0 0 20 21" fill="none" xmlns="http://www.w3.org/2000/svg">
    <path d="m10 11.52-6.22-3.9a.83.83 0 0 0-.89 1.42l6.67 4.17c.27.17.61.17.88 0l6.67-4.17a.83.83 0 0 0-.89-1.41z" fill="currentColor"/>
</symbol>

<symbol id="check-green-icon" viewBox="0 0 60 60" xmlns="http://www.w3.org/2000/svg"><defs>
</defs><path class="cls-10" d="M800,510a30,30,0,1,1,30-30A30,30,0,0,1,800,510Zm-16.986-23.235a3.484,3.484,0,0,1,0-4.9l1.766-1.756a3.185,3.185,0,0,1,4.574.051l3.12,3.237a1.592,1.592,0,0,0,2.311,0l15.9-16.39a3.187,3.187,0,0,1,4.6-.027L817,468.714a3.482,3.482,0,0,1,0,4.846l-21.109,21.451a3.185,3.185,0,0,1-4.552.03Z" id="check" fill="currentColor" stroke="transparent" transform="translate(-770 -450)"/></symbol>

</svg>
