<svg xmlns="http://www.w3.org/2000/svg" version="1.1" xmlns:xlink="http://www.w3.org/1999/xlink" width="420.51" height="389.3"><svg id="SvgjsSvg1003" data-name="Слой 2" xmlns="http://www.w3.org/2000/svg" viewBox="0 0 420.51 389.3">
  <defs>
    <style>
      .cls-1 {
        fill: #965eeb;
      }

      .cls-2 {
        fill: #04e061;
      }

      .cls-3 {
        fill: #0af;
      }

      .cls-4 {
        fill: #ff4053;
      }
    </style>
  </defs>
  <g id="SvgjsG1002" data-name=" Слой 3">
    <path class="cls-3" d="m294.57,0c-69.55,0-125.94,56.38-125.94,125.94s56.38,125.94,125.94,125.94,125.94-56.38,125.94-125.94S364.13,0,294.57,0h0Z"></path>
    <path class="cls-1" d="m76.1,15.89C34.07,15.89,0,49.96,0,91.99s34.07,76.1,76.1,76.1,76.1-34.07,76.1-76.1S118.13,15.89,76.1,15.89Z"></path>
    <path class="cls-4" d="m270.48,268.29c-26.01,0-47.09,21.08-47.09,47.09s21.08,47.09,47.09,47.09,47.09-21.08,47.09-47.09-21.08-47.09-47.09-47.09Z"></path>
    <path class="cls-2" d="m105.67,184.52c-56.55,0-102.39,45.84-102.39,102.39s45.84,102.39,102.39,102.39,102.39-45.84,102.39-102.39-45.84-102.39-102.39-102.39h0Z"></path>
  </g>
</svg><style>@media (prefers-color-scheme: light) { :root { filter: none; } }
@media (prefers-color-scheme: dark) { :root { filter: none; } }
</style></svg>