<?xml version="1.0" encoding="UTF-8"?>
<svg id="_Слой_1" data-name="Слой 1" xmlns="http://www.w3.org/2000/svg" xmlns:xlink="http://www.w3.org/1999/xlink" viewBox="0 0 1453.5 468.5">
  <defs>
    <style>
      .cls-1 {
        clip-path: url(#clippath);
      }

      .cls-2 {
        fill: none;
      }
    </style>
    <clipPath id="clippath">
      <rect class="cls-2" x="-401.78" y="25.66" width="1535.16" height="390.47"/>
    </clipPath>
  </defs>
  <path d="m1259.49,130.58c-24.91,0-49.25,7.38-69.96,21.22-20.71,13.83-36.84,33.5-46.36,56.5-9.54,23.01-12.02,48.32-7.17,72.74,4.86,24.42,16.85,46.86,34.46,64.46,17.6,17.61,40.03,29.6,64.46,34.46,24.42,4.86,49.74,2.36,72.75-7.17,23-9.53,42.66-25.67,56.49-46.37,13.84-20.7,21.22-45.05,21.22-69.95,0-33.39-13.27-65.42-36.87-89.03-23.61-23.61-55.64-36.88-89.03-36.88Zm0,187.25c-12.14,0-23.99-3.6-34.07-10.34-10.09-6.74-17.95-16.32-22.6-27.53-4.64-11.21-5.86-23.54-3.48-35.44,2.36-11.9,8.2-22.83,16.78-31.4,8.58-8.58,19.5-14.42,31.4-16.79,11.9-2.37,24.23-1.15,35.44,3.49,11.2,4.64,20.79,12.5,27.53,22.59,6.73,10.09,10.33,21.94,10.33,34.08.02,8.06-1.56,16.04-4.63,23.49-3.08,7.45-7.59,14.21-13.3,19.91-5.69,5.7-12.46,10.22-19.91,13.29-7.44,3.08-15.42,4.65-23.48,4.64Z"/>
  <rect x="1327.87" y="130.99" width="60.63" height="251.75"/>
  <g class="cls-1">
    <g>
      <path d="m185.04,34.84L52.59,380.88h71.18l27.49-72.27h140.62l27.36,72.27h70.64L257.91,34.84h-72.88Zm-9.66,210.26l46.34-121.77,46.08,121.77h-92.42Z"/>
      <path d="m474.68,291.63l-57.49-153.86h-67.89l92.53,243.11h67.35l90.88-243.11h-67.89l-57.49,153.86Z"/>
      <path d="m813.59,73.17h-64.6v64.6h-37.77v58.05h37.77v103.49c0,58.59,32.31,83.77,77.74,83.77,15.41.22,30.7-2.76,44.9-8.76v-60.22c-7.73,2.85-15.88,4.36-24.11,4.46-19.62,0-33.94-7.67-33.94-33.95v-88.79h58.05v-58.05h-58.05v-64.6Z"/>
      <path d="m653.17,120.26c26.01,0,47.09-21.08,47.09-47.09s-21.09-47.09-47.09-47.09-47.09,21.08-47.09,47.09,21.09,47.09,47.09,47.09Z"/>
      <path d="m685.47,137.77h-64.6v243.11h64.6v-243.11Z"/>
    </g>
  </g>
  <path d="m1008.02,284.85l-57.49-153.86h-67.89c30.93,81.11,61.86,162.22,92.78,243.32-4.22,6.3-10.56,16.17-17.47,28.77-12.63,23.05-21.32,38.91-16.44,44.18,2.93,3.17,8.02-.41,45.21-10.28,10.09-2.68,27.74-7.19,27.74-7.19h0s8.22-14.08,9.6-16.47c4.4-7.62,10.69-19.78,18.45-39.24,30.29-81.04,60.59-162.07,90.88-243.11h-67.89l-57.49,153.86Z"/>
</svg>