<?xml version="1.0" encoding="UTF-8"?>
<svg id="_Слой_3" data-name="Слой 3" xmlns="http://www.w3.org/2000/svg" viewBox="0 0 1790.28 422.73">
  <defs>
    <style>
      .cls-1 {
        fill: #965eeb;
      }

      .cls-2 {
        fill: #04e061;
      }

      .cls-3 {
        fill: #0af;
      }

      .cls-4 {
        fill: #ff4053;
      }
    </style>
  </defs>
  <path class="cls-3" d="m967.02,20c-69.55,0-125.94,56.38-125.94,125.94s56.38,125.94,125.94,125.94,125.94-56.38,125.94-125.94-56.38-125.94-125.94-125.94Z"/>
  <path class="cls-1" d="m748.55,35.89c-42.03,0-76.1,34.07-76.1,76.1s34.07,76.1,76.1,76.1,76.1-34.07,76.1-76.1-34.07-76.1-76.1-76.1Z"/>
  <path class="cls-4" d="m942.93,288.29c-26.01,0-47.09,21.08-47.09,47.09s21.08,47.09,47.09,47.09,47.09-21.08,47.09-47.09-21.08-47.09-47.09-47.09Z"/>
  <path class="cls-2" d="m778.12,204.52c-56.55,0-102.39,45.84-102.39,102.39s45.84,102.39,102.39,102.39,102.39-45.84,102.39-102.39-45.84-102.39-102.39-102.39Z"/>
</svg>